<mxfile host="app.diagrams.net" modified="2023-10-18T09:11:36.456Z" agent="Mozilla/5.0 (Windows NT 10.0; Win64; x64) AppleWebKit/537.36 (KHTML, like Gecko) Chrome/116.0.0.0 Safari/537.36 OPR/102.0.0.0" etag="Y-1MdI9tVK7Xf9xCdjua" version="22.0.4" type="device">
  <diagram name="1 oldal" id="pJ8VJwaf-hjn5bh62kM2">
    <mxGraphModel dx="2213" dy="816" grid="1" gridSize="10" guides="1" tooltips="1" connect="1" arrows="1" fold="1" page="1" pageScale="1" pageWidth="827" pageHeight="1169" math="0" shadow="0">
      <root>
        <mxCell id="0" />
        <mxCell id="1" parent="0" />
        <mxCell id="wx-EWtyC2w3FA3edwixe-3" value="" style="endArrow=none;html=1;rounded=0;entryX=0;entryY=0.5;entryDx=0;entryDy=0;exitX=1;exitY=0.5;exitDx=0;exitDy=0;" edge="1" parent="1" source="wx-EWtyC2w3FA3edwixe-112" target="wx-EWtyC2w3FA3edwixe-13">
          <mxGeometry width="50" height="50" relative="1" as="geometry">
            <mxPoint x="179.38749894919238" y="65.65441238282801" as="sourcePoint" />
            <mxPoint x="280" y="55" as="targetPoint" />
          </mxGeometry>
        </mxCell>
        <mxCell id="wx-EWtyC2w3FA3edwixe-4" value="Nev" style="ellipse;whiteSpace=wrap;html=1;" vertex="1" parent="1">
          <mxGeometry x="160" y="140" width="70" height="40" as="geometry" />
        </mxCell>
        <mxCell id="wx-EWtyC2w3FA3edwixe-5" value="" style="endArrow=none;html=1;rounded=0;entryX=0;entryY=1;entryDx=0;entryDy=0;exitX=0.5;exitY=0;exitDx=0;exitDy=0;" edge="1" parent="1" source="wx-EWtyC2w3FA3edwixe-4" target="wx-EWtyC2w3FA3edwixe-13">
          <mxGeometry width="50" height="50" relative="1" as="geometry">
            <mxPoint x="330" y="240" as="sourcePoint" />
            <mxPoint x="310" y="70" as="targetPoint" />
          </mxGeometry>
        </mxCell>
        <mxCell id="wx-EWtyC2w3FA3edwixe-6" value="Helyszín" style="ellipse;whiteSpace=wrap;html=1;" vertex="1" parent="1">
          <mxGeometry x="328" y="160" width="70" height="40" as="geometry" />
        </mxCell>
        <mxCell id="wx-EWtyC2w3FA3edwixe-7" value="Év" style="ellipse;whiteSpace=wrap;html=1;" vertex="1" parent="1">
          <mxGeometry x="550" y="120" width="70" height="40" as="geometry" />
        </mxCell>
        <mxCell id="wx-EWtyC2w3FA3edwixe-8" value="" style="endArrow=none;html=1;rounded=0;entryX=1;entryY=1;entryDx=0;entryDy=0;exitX=0.5;exitY=0;exitDx=0;exitDy=0;" edge="1" parent="1" source="wx-EWtyC2w3FA3edwixe-6" target="wx-EWtyC2w3FA3edwixe-13">
          <mxGeometry width="50" height="50" relative="1" as="geometry">
            <mxPoint x="330" y="240" as="sourcePoint" />
            <mxPoint x="370" y="70" as="targetPoint" />
          </mxGeometry>
        </mxCell>
        <mxCell id="wx-EWtyC2w3FA3edwixe-9" value="" style="endArrow=none;html=1;rounded=0;entryX=0;entryY=0;entryDx=0;entryDy=0;exitX=1;exitY=0.5;exitDx=0;exitDy=0;" edge="1" parent="1" source="wx-EWtyC2w3FA3edwixe-13" target="wx-EWtyC2w3FA3edwixe-7">
          <mxGeometry width="50" height="50" relative="1" as="geometry">
            <mxPoint x="400" y="55" as="sourcePoint" />
            <mxPoint x="380" y="190" as="targetPoint" />
          </mxGeometry>
        </mxCell>
        <mxCell id="wx-EWtyC2w3FA3edwixe-12" value="" style="endArrow=none;html=1;rounded=0;entryX=1;entryY=0.5;entryDx=0;entryDy=0;exitX=0.5;exitY=0;exitDx=0;exitDy=0;" edge="1" parent="1" source="wx-EWtyC2w3FA3edwixe-14" target="wx-EWtyC2w3FA3edwixe-13">
          <mxGeometry width="50" height="50" relative="1" as="geometry">
            <mxPoint x="315" y="200" as="sourcePoint" />
            <mxPoint x="287.5" y="70" as="targetPoint" />
          </mxGeometry>
        </mxCell>
        <mxCell id="wx-EWtyC2w3FA3edwixe-13" value="Fesztivál" style="ellipse;whiteSpace=wrap;html=1;" vertex="1" parent="1">
          <mxGeometry x="270" y="10" width="90" height="50" as="geometry" />
        </mxCell>
        <mxCell id="wx-EWtyC2w3FA3edwixe-14" value="Fellépő" style="ellipse;whiteSpace=wrap;html=1;" vertex="1" parent="1">
          <mxGeometry x="1140" y="295" width="90" height="50" as="geometry" />
        </mxCell>
        <mxCell id="wx-EWtyC2w3FA3edwixe-17" value="" style="endArrow=none;html=1;rounded=0;exitX=0;exitY=0.5;exitDx=0;exitDy=0;entryX=1;entryY=0;entryDx=0;entryDy=0;" edge="1" parent="1" source="wx-EWtyC2w3FA3edwixe-14" target="wx-EWtyC2w3FA3edwixe-113">
          <mxGeometry width="50" height="50" relative="1" as="geometry">
            <mxPoint x="1060" y="240" as="sourcePoint" />
            <mxPoint x="949.3874989491778" y="305.65441238283665" as="targetPoint" />
          </mxGeometry>
        </mxCell>
        <mxCell id="wx-EWtyC2w3FA3edwixe-18" value="Nev" style="ellipse;whiteSpace=wrap;html=1;" vertex="1" parent="1">
          <mxGeometry x="1100" y="385" width="70" height="40" as="geometry" />
        </mxCell>
        <mxCell id="wx-EWtyC2w3FA3edwixe-20" value="" style="endArrow=none;html=1;rounded=0;exitX=0;exitY=1;exitDx=0;exitDy=0;entryX=0.5;entryY=0;entryDx=0;entryDy=0;" edge="1" parent="1" source="wx-EWtyC2w3FA3edwixe-14">
          <mxGeometry width="50" height="50" relative="1" as="geometry">
            <mxPoint x="1180" y="285" as="sourcePoint" />
            <mxPoint x="1135" y="385" as="targetPoint" />
          </mxGeometry>
        </mxCell>
        <mxCell id="wx-EWtyC2w3FA3edwixe-21" value="Díj" style="ellipse;whiteSpace=wrap;html=1;" vertex="1" parent="1">
          <mxGeometry x="1274" y="345" width="70" height="40" as="geometry" />
        </mxCell>
        <mxCell id="wx-EWtyC2w3FA3edwixe-23" value="Ország" style="ellipse;whiteSpace=wrap;html=1;" vertex="1" parent="1">
          <mxGeometry x="1204" y="385" width="70" height="40" as="geometry" />
        </mxCell>
        <mxCell id="wx-EWtyC2w3FA3edwixe-24" value="" style="endArrow=none;html=1;rounded=0;exitX=1;exitY=1;exitDx=0;exitDy=0;entryX=0.5;entryY=0;entryDx=0;entryDy=0;" edge="1" parent="1" source="wx-EWtyC2w3FA3edwixe-14" target="wx-EWtyC2w3FA3edwixe-23">
          <mxGeometry width="50" height="50" relative="1" as="geometry">
            <mxPoint x="1180" y="285" as="sourcePoint" />
            <mxPoint x="1230" y="235" as="targetPoint" />
          </mxGeometry>
        </mxCell>
        <mxCell id="wx-EWtyC2w3FA3edwixe-25" value="" style="endArrow=none;html=1;rounded=0;exitX=1;exitY=0.5;exitDx=0;exitDy=0;entryX=0;entryY=0;entryDx=0;entryDy=0;" edge="1" parent="1" source="wx-EWtyC2w3FA3edwixe-14" target="wx-EWtyC2w3FA3edwixe-21">
          <mxGeometry width="50" height="50" relative="1" as="geometry">
            <mxPoint x="1180" y="285" as="sourcePoint" />
            <mxPoint x="1230" y="235" as="targetPoint" />
          </mxGeometry>
        </mxCell>
        <mxCell id="wx-EWtyC2w3FA3edwixe-30" value="Tulajdonos" style="ellipse;whiteSpace=wrap;html=1;" vertex="1" parent="1">
          <mxGeometry x="-160" y="250" width="90" height="50" as="geometry" />
        </mxCell>
        <mxCell id="wx-EWtyC2w3FA3edwixe-32" value="" style="endArrow=none;html=1;rounded=0;exitX=0;exitY=0.5;exitDx=0;exitDy=0;entryX=1;entryY=0;entryDx=0;entryDy=0;" edge="1" parent="1" source="wx-EWtyC2w3FA3edwixe-30" target="wx-EWtyC2w3FA3edwixe-106">
          <mxGeometry width="50" height="50" relative="1" as="geometry">
            <mxPoint x="-120" y="240" as="sourcePoint" />
            <mxPoint x="-230.61250105077784" y="305.65441238281073" as="targetPoint" />
          </mxGeometry>
        </mxCell>
        <mxCell id="wx-EWtyC2w3FA3edwixe-33" value="Nev" style="ellipse;whiteSpace=wrap;html=1;" vertex="1" parent="1">
          <mxGeometry x="-200" y="340" width="70" height="40" as="geometry" />
        </mxCell>
        <mxCell id="wx-EWtyC2w3FA3edwixe-34" value="" style="endArrow=none;html=1;rounded=0;exitX=0;exitY=1;exitDx=0;exitDy=0;entryX=0.5;entryY=0;entryDx=0;entryDy=0;" edge="1" parent="1" source="wx-EWtyC2w3FA3edwixe-30" target="wx-EWtyC2w3FA3edwixe-33">
          <mxGeometry width="50" height="50" relative="1" as="geometry">
            <mxPoint x="-120" y="240" as="sourcePoint" />
            <mxPoint x="-70" y="190" as="targetPoint" />
          </mxGeometry>
        </mxCell>
        <mxCell id="wx-EWtyC2w3FA3edwixe-35" value="Alapítás" style="ellipse;whiteSpace=wrap;html=1;" vertex="1" parent="1">
          <mxGeometry x="-10" y="330" width="70" height="40" as="geometry" />
        </mxCell>
        <mxCell id="wx-EWtyC2w3FA3edwixe-36" value="Adószám" style="ellipse;whiteSpace=wrap;html=1;" vertex="1" parent="1">
          <mxGeometry x="-96" y="340" width="70" height="40" as="geometry" />
        </mxCell>
        <mxCell id="wx-EWtyC2w3FA3edwixe-37" value="" style="endArrow=none;html=1;rounded=0;exitX=1;exitY=1;exitDx=0;exitDy=0;entryX=0.5;entryY=0;entryDx=0;entryDy=0;" edge="1" parent="1" source="wx-EWtyC2w3FA3edwixe-30" target="wx-EWtyC2w3FA3edwixe-36">
          <mxGeometry width="50" height="50" relative="1" as="geometry">
            <mxPoint x="-120" y="240" as="sourcePoint" />
            <mxPoint x="-70" y="190" as="targetPoint" />
          </mxGeometry>
        </mxCell>
        <mxCell id="wx-EWtyC2w3FA3edwixe-38" value="" style="endArrow=none;html=1;rounded=0;exitX=1;exitY=0.5;exitDx=0;exitDy=0;entryX=0;entryY=0;entryDx=0;entryDy=0;" edge="1" parent="1" source="wx-EWtyC2w3FA3edwixe-30" target="wx-EWtyC2w3FA3edwixe-35">
          <mxGeometry width="50" height="50" relative="1" as="geometry">
            <mxPoint x="-120" y="240" as="sourcePoint" />
            <mxPoint x="-70" y="190" as="targetPoint" />
          </mxGeometry>
        </mxCell>
        <mxCell id="wx-EWtyC2w3FA3edwixe-39" value="" style="endArrow=none;html=1;rounded=0;exitX=0.5;exitY=1;exitDx=0;exitDy=0;" edge="1" parent="1" source="wx-EWtyC2w3FA3edwixe-41">
          <mxGeometry width="50" height="50" relative="1" as="geometry">
            <mxPoint x="55" y="200" as="sourcePoint" />
            <mxPoint x="55" y="300" as="targetPoint" />
          </mxGeometry>
        </mxCell>
        <mxCell id="wx-EWtyC2w3FA3edwixe-42" value="" style="endArrow=none;html=1;rounded=0;entryX=1;entryY=0.5;entryDx=0;entryDy=0;exitX=0;exitY=0.5;exitDx=0;exitDy=0;" edge="1" parent="1" source="wx-EWtyC2w3FA3edwixe-41" target="wx-EWtyC2w3FA3edwixe-30">
          <mxGeometry width="50" height="50" relative="1" as="geometry">
            <mxPoint x="-380" y="560" as="sourcePoint" />
            <mxPoint x="-330" y="510" as="targetPoint" />
          </mxGeometry>
        </mxCell>
        <mxCell id="wx-EWtyC2w3FA3edwixe-41" value="Bevétel" style="ellipse;whiteSpace=wrap;html=1;" vertex="1" parent="1">
          <mxGeometry x="50" y="270" width="70" height="40" as="geometry" />
        </mxCell>
        <mxCell id="wx-EWtyC2w3FA3edwixe-45" value="" style="endArrow=none;html=1;rounded=0;exitX=1;exitY=0;exitDx=0;exitDy=0;" edge="1" parent="1" source="wx-EWtyC2w3FA3edwixe-30" target="wx-EWtyC2w3FA3edwixe-13">
          <mxGeometry width="50" height="50" relative="1" as="geometry">
            <mxPoint x="-380" y="110" as="sourcePoint" />
            <mxPoint x="280" y="40" as="targetPoint" />
          </mxGeometry>
        </mxCell>
        <mxCell id="wx-EWtyC2w3FA3edwixe-47" value="Bár" style="ellipse;whiteSpace=wrap;html=1;" vertex="1" parent="1">
          <mxGeometry x="200" y="270" width="90" height="50" as="geometry" />
        </mxCell>
        <mxCell id="wx-EWtyC2w3FA3edwixe-49" value="" style="endArrow=none;html=1;rounded=0;exitX=0;exitY=0.5;exitDx=0;exitDy=0;entryX=1;entryY=0;entryDx=0;entryDy=0;" edge="1" parent="1" source="wx-EWtyC2w3FA3edwixe-47" target="wx-EWtyC2w3FA3edwixe-108">
          <mxGeometry width="50" height="50" relative="1" as="geometry">
            <mxPoint x="240" y="260" as="sourcePoint" />
            <mxPoint x="149.38749894923694" y="325.6544123828014" as="targetPoint" />
          </mxGeometry>
        </mxCell>
        <mxCell id="wx-EWtyC2w3FA3edwixe-50" value="Nev" style="ellipse;whiteSpace=wrap;html=1;" vertex="1" parent="1">
          <mxGeometry x="170" y="350" width="70" height="40" as="geometry" />
        </mxCell>
        <mxCell id="wx-EWtyC2w3FA3edwixe-51" value="" style="endArrow=none;html=1;rounded=0;exitX=0;exitY=1;exitDx=0;exitDy=0;entryX=0.5;entryY=0;entryDx=0;entryDy=0;" edge="1" parent="1" source="wx-EWtyC2w3FA3edwixe-47" target="wx-EWtyC2w3FA3edwixe-50">
          <mxGeometry width="50" height="50" relative="1" as="geometry">
            <mxPoint x="240" y="260" as="sourcePoint" />
            <mxPoint x="290" y="210" as="targetPoint" />
          </mxGeometry>
        </mxCell>
        <mxCell id="wx-EWtyC2w3FA3edwixe-52" value="Cég" style="ellipse;whiteSpace=wrap;html=1;" vertex="1" parent="1">
          <mxGeometry x="350" y="320" width="70" height="40" as="geometry" />
        </mxCell>
        <mxCell id="wx-EWtyC2w3FA3edwixe-53" value="Ital" style="ellipse;whiteSpace=wrap;html=1;" vertex="1" parent="1">
          <mxGeometry x="264" y="350" width="70" height="40" as="geometry" />
        </mxCell>
        <mxCell id="wx-EWtyC2w3FA3edwixe-54" value="" style="endArrow=none;html=1;rounded=0;exitX=1;exitY=1;exitDx=0;exitDy=0;entryX=0.5;entryY=0;entryDx=0;entryDy=0;" edge="1" parent="1" source="wx-EWtyC2w3FA3edwixe-47" target="wx-EWtyC2w3FA3edwixe-53">
          <mxGeometry width="50" height="50" relative="1" as="geometry">
            <mxPoint x="240" y="260" as="sourcePoint" />
            <mxPoint x="290" y="210" as="targetPoint" />
          </mxGeometry>
        </mxCell>
        <mxCell id="wx-EWtyC2w3FA3edwixe-55" value="" style="endArrow=none;html=1;rounded=0;exitX=1;exitY=0.5;exitDx=0;exitDy=0;entryX=0;entryY=0;entryDx=0;entryDy=0;" edge="1" parent="1" source="wx-EWtyC2w3FA3edwixe-47" target="wx-EWtyC2w3FA3edwixe-52">
          <mxGeometry width="50" height="50" relative="1" as="geometry">
            <mxPoint x="240" y="260" as="sourcePoint" />
            <mxPoint x="290" y="210" as="targetPoint" />
          </mxGeometry>
        </mxCell>
        <mxCell id="wx-EWtyC2w3FA3edwixe-59" value="" style="endArrow=none;html=1;rounded=0;exitX=0.5;exitY=1;exitDx=0;exitDy=0;entryX=0.5;entryY=0;entryDx=0;entryDy=0;" edge="1" parent="1" source="wx-EWtyC2w3FA3edwixe-47" target="wx-EWtyC2w3FA3edwixe-61">
          <mxGeometry width="50" height="50" relative="1" as="geometry">
            <mxPoint x="-20" y="130" as="sourcePoint" />
            <mxPoint x="245" y="490" as="targetPoint" />
          </mxGeometry>
        </mxCell>
        <mxCell id="wx-EWtyC2w3FA3edwixe-60" value="" style="endArrow=none;html=1;rounded=0;entryX=0.5;entryY=1;entryDx=0;entryDy=0;exitX=0.5;exitY=0;exitDx=0;exitDy=0;" edge="1" parent="1" source="wx-EWtyC2w3FA3edwixe-47" target="wx-EWtyC2w3FA3edwixe-13">
          <mxGeometry width="50" height="50" relative="1" as="geometry">
            <mxPoint x="160" y="120" as="sourcePoint" />
            <mxPoint x="210" y="70" as="targetPoint" />
          </mxGeometry>
        </mxCell>
        <mxCell id="wx-EWtyC2w3FA3edwixe-61" value="Alkalmazott" style="ellipse;whiteSpace=wrap;html=1;" vertex="1" parent="1">
          <mxGeometry x="200" y="500" width="90" height="50" as="geometry" />
        </mxCell>
        <mxCell id="wx-EWtyC2w3FA3edwixe-63" value="" style="endArrow=none;html=1;rounded=0;exitX=0;exitY=0.5;exitDx=0;exitDy=0;entryX=1;entryY=0;entryDx=0;entryDy=0;" edge="1" parent="1" source="wx-EWtyC2w3FA3edwixe-61" target="wx-EWtyC2w3FA3edwixe-110">
          <mxGeometry width="50" height="50" relative="1" as="geometry">
            <mxPoint x="240" y="490" as="sourcePoint" />
            <mxPoint x="149.38749894923694" y="555.6544123828014" as="targetPoint" />
          </mxGeometry>
        </mxCell>
        <mxCell id="wx-EWtyC2w3FA3edwixe-64" value="Nev" style="ellipse;whiteSpace=wrap;html=1;" vertex="1" parent="1">
          <mxGeometry x="160" y="590" width="70" height="40" as="geometry" />
        </mxCell>
        <mxCell id="wx-EWtyC2w3FA3edwixe-65" value="" style="endArrow=none;html=1;rounded=0;exitX=0;exitY=1;exitDx=0;exitDy=0;entryX=0.5;entryY=0;entryDx=0;entryDy=0;" edge="1" parent="1" source="wx-EWtyC2w3FA3edwixe-61" target="wx-EWtyC2w3FA3edwixe-64">
          <mxGeometry width="50" height="50" relative="1" as="geometry">
            <mxPoint x="240" y="490" as="sourcePoint" />
            <mxPoint x="290" y="440" as="targetPoint" />
          </mxGeometry>
        </mxCell>
        <mxCell id="wx-EWtyC2w3FA3edwixe-66" value="Fizetés" style="ellipse;whiteSpace=wrap;html=1;" vertex="1" parent="1">
          <mxGeometry x="350" y="550" width="70" height="40" as="geometry" />
        </mxCell>
        <mxCell id="wx-EWtyC2w3FA3edwixe-67" value="Műszak" style="ellipse;whiteSpace=wrap;html=1;" vertex="1" parent="1">
          <mxGeometry x="264" y="580" width="86" height="50" as="geometry" />
        </mxCell>
        <mxCell id="wx-EWtyC2w3FA3edwixe-68" value="" style="endArrow=none;html=1;rounded=0;exitX=1;exitY=1;exitDx=0;exitDy=0;entryX=0.5;entryY=0;entryDx=0;entryDy=0;" edge="1" parent="1" source="wx-EWtyC2w3FA3edwixe-61" target="wx-EWtyC2w3FA3edwixe-67">
          <mxGeometry width="50" height="50" relative="1" as="geometry">
            <mxPoint x="240" y="490" as="sourcePoint" />
            <mxPoint x="290" y="440" as="targetPoint" />
          </mxGeometry>
        </mxCell>
        <mxCell id="wx-EWtyC2w3FA3edwixe-69" value="" style="endArrow=none;html=1;rounded=0;exitX=1;exitY=0.5;exitDx=0;exitDy=0;entryX=0;entryY=0;entryDx=0;entryDy=0;" edge="1" parent="1" source="wx-EWtyC2w3FA3edwixe-61" target="wx-EWtyC2w3FA3edwixe-66">
          <mxGeometry width="50" height="50" relative="1" as="geometry">
            <mxPoint x="240" y="490" as="sourcePoint" />
            <mxPoint x="290" y="440" as="targetPoint" />
          </mxGeometry>
        </mxCell>
        <mxCell id="wx-EWtyC2w3FA3edwixe-72" value="Résztvevő" style="ellipse;whiteSpace=wrap;html=1;" vertex="1" parent="1">
          <mxGeometry x="570" y="270" width="90" height="50" as="geometry" />
        </mxCell>
        <mxCell id="wx-EWtyC2w3FA3edwixe-74" value="" style="endArrow=none;html=1;rounded=0;exitX=0;exitY=0.5;exitDx=0;exitDy=0;entryX=1;entryY=0;entryDx=0;entryDy=0;" edge="1" parent="1" source="wx-EWtyC2w3FA3edwixe-72" target="wx-EWtyC2w3FA3edwixe-109">
          <mxGeometry width="50" height="50" relative="1" as="geometry">
            <mxPoint x="610" y="260" as="sourcePoint" />
            <mxPoint x="519.3874989492069" y="325.6544123828194" as="targetPoint" />
          </mxGeometry>
        </mxCell>
        <mxCell id="wx-EWtyC2w3FA3edwixe-75" value="Nev" style="ellipse;whiteSpace=wrap;html=1;" vertex="1" parent="1">
          <mxGeometry x="530" y="360" width="70" height="40" as="geometry" />
        </mxCell>
        <mxCell id="wx-EWtyC2w3FA3edwixe-76" value="" style="endArrow=none;html=1;rounded=0;exitX=0;exitY=1;exitDx=0;exitDy=0;entryX=0.5;entryY=0;entryDx=0;entryDy=0;" edge="1" parent="1" source="wx-EWtyC2w3FA3edwixe-72" target="wx-EWtyC2w3FA3edwixe-75">
          <mxGeometry width="50" height="50" relative="1" as="geometry">
            <mxPoint x="610" y="260" as="sourcePoint" />
            <mxPoint x="660" y="210" as="targetPoint" />
          </mxGeometry>
        </mxCell>
        <mxCell id="wx-EWtyC2w3FA3edwixe-77" value="lakcím" style="ellipse;whiteSpace=wrap;html=1;" vertex="1" parent="1">
          <mxGeometry x="810" y="330" width="70" height="40" as="geometry" />
        </mxCell>
        <mxCell id="wx-EWtyC2w3FA3edwixe-78" value="Diakigazolvány" style="ellipse;whiteSpace=wrap;html=1;" vertex="1" parent="1">
          <mxGeometry x="634" y="360" width="70" height="40" as="geometry" />
        </mxCell>
        <mxCell id="wx-EWtyC2w3FA3edwixe-79" value="" style="endArrow=none;html=1;rounded=0;exitX=1;exitY=1;exitDx=0;exitDy=0;entryX=0.5;entryY=0;entryDx=0;entryDy=0;" edge="1" parent="1" source="wx-EWtyC2w3FA3edwixe-72" target="wx-EWtyC2w3FA3edwixe-78">
          <mxGeometry width="50" height="50" relative="1" as="geometry">
            <mxPoint x="610" y="260" as="sourcePoint" />
            <mxPoint x="660" y="210" as="targetPoint" />
          </mxGeometry>
        </mxCell>
        <mxCell id="wx-EWtyC2w3FA3edwixe-80" value="" style="endArrow=none;html=1;rounded=0;exitX=1;exitY=0.5;exitDx=0;exitDy=0;entryX=0;entryY=0;entryDx=0;entryDy=0;" edge="1" parent="1" source="wx-EWtyC2w3FA3edwixe-72" target="wx-EWtyC2w3FA3edwixe-77">
          <mxGeometry width="50" height="50" relative="1" as="geometry">
            <mxPoint x="610" y="260" as="sourcePoint" />
            <mxPoint x="660" y="210" as="targetPoint" />
          </mxGeometry>
        </mxCell>
        <mxCell id="wx-EWtyC2w3FA3edwixe-81" value="" style="endArrow=none;html=1;rounded=0;exitX=0.5;exitY=1;exitDx=0;exitDy=0;entryX=0.5;entryY=0;entryDx=0;entryDy=0;" edge="1" parent="1" source="wx-EWtyC2w3FA3edwixe-72" target="wx-EWtyC2w3FA3edwixe-82">
          <mxGeometry width="50" height="50" relative="1" as="geometry">
            <mxPoint x="350" y="130" as="sourcePoint" />
            <mxPoint x="615" y="490" as="targetPoint" />
          </mxGeometry>
        </mxCell>
        <mxCell id="wx-EWtyC2w3FA3edwixe-82" value="Nyelvtudás" style="ellipse;whiteSpace=wrap;html=1;" vertex="1" parent="1">
          <mxGeometry x="570" y="500" width="90" height="50" as="geometry" />
        </mxCell>
        <mxCell id="wx-EWtyC2w3FA3edwixe-84" value="" style="endArrow=none;html=1;rounded=0;exitX=0;exitY=0.5;exitDx=0;exitDy=0;entryX=1;entryY=0;entryDx=0;entryDy=0;" edge="1" parent="1" source="wx-EWtyC2w3FA3edwixe-82" target="wx-EWtyC2w3FA3edwixe-111">
          <mxGeometry width="50" height="50" relative="1" as="geometry">
            <mxPoint x="610" y="490" as="sourcePoint" />
            <mxPoint x="519.3874989492069" y="555.6544123828194" as="targetPoint" />
          </mxGeometry>
        </mxCell>
        <mxCell id="wx-EWtyC2w3FA3edwixe-85" value="Nyelv" style="ellipse;whiteSpace=wrap;html=1;" vertex="1" parent="1">
          <mxGeometry x="550" y="580" width="70" height="40" as="geometry" />
        </mxCell>
        <mxCell id="wx-EWtyC2w3FA3edwixe-86" value="" style="endArrow=none;html=1;rounded=0;exitX=0;exitY=1;exitDx=0;exitDy=0;entryX=0.5;entryY=0;entryDx=0;entryDy=0;" edge="1" parent="1" source="wx-EWtyC2w3FA3edwixe-82" target="wx-EWtyC2w3FA3edwixe-85">
          <mxGeometry width="50" height="50" relative="1" as="geometry">
            <mxPoint x="610" y="490" as="sourcePoint" />
            <mxPoint x="660" y="440" as="targetPoint" />
          </mxGeometry>
        </mxCell>
        <mxCell id="wx-EWtyC2w3FA3edwixe-88" value="Színt" style="ellipse;whiteSpace=wrap;html=1;" vertex="1" parent="1">
          <mxGeometry x="680" y="560" width="70" height="40" as="geometry" />
        </mxCell>
        <mxCell id="wx-EWtyC2w3FA3edwixe-89" value="" style="endArrow=none;html=1;rounded=0;exitX=1;exitY=1;exitDx=0;exitDy=0;entryX=0.5;entryY=0;entryDx=0;entryDy=0;" edge="1" parent="1" source="wx-EWtyC2w3FA3edwixe-82" target="wx-EWtyC2w3FA3edwixe-88">
          <mxGeometry width="50" height="50" relative="1" as="geometry">
            <mxPoint x="610" y="490" as="sourcePoint" />
            <mxPoint x="660" y="440" as="targetPoint" />
          </mxGeometry>
        </mxCell>
        <mxCell id="wx-EWtyC2w3FA3edwixe-94" value="" style="endArrow=none;html=1;rounded=0;entryX=1;entryY=0.5;entryDx=0;entryDy=0;exitX=0;exitY=0;exitDx=0;exitDy=0;" edge="1" parent="1" source="wx-EWtyC2w3FA3edwixe-72" target="wx-EWtyC2w3FA3edwixe-13">
          <mxGeometry width="50" height="50" relative="1" as="geometry">
            <mxPoint x="400" y="290" as="sourcePoint" />
            <mxPoint x="450" y="240" as="targetPoint" />
          </mxGeometry>
        </mxCell>
        <mxCell id="wx-EWtyC2w3FA3edwixe-95" value="Utca" style="ellipse;whiteSpace=wrap;html=1;" vertex="1" parent="1">
          <mxGeometry x="810" y="400" width="70" height="40" as="geometry" />
        </mxCell>
        <mxCell id="wx-EWtyC2w3FA3edwixe-96" value="Utca" style="ellipse;whiteSpace=wrap;html=1;" vertex="1" parent="1">
          <mxGeometry x="720" y="390" width="70" height="40" as="geometry" />
        </mxCell>
        <mxCell id="wx-EWtyC2w3FA3edwixe-97" value="Település" style="ellipse;whiteSpace=wrap;html=1;" vertex="1" parent="1">
          <mxGeometry x="900" y="390" width="70" height="40" as="geometry" />
        </mxCell>
        <mxCell id="wx-EWtyC2w3FA3edwixe-98" value="" style="endArrow=none;html=1;rounded=0;entryX=0;entryY=1;entryDx=0;entryDy=0;exitX=0.5;exitY=0;exitDx=0;exitDy=0;" edge="1" parent="1" source="wx-EWtyC2w3FA3edwixe-96" target="wx-EWtyC2w3FA3edwixe-77">
          <mxGeometry width="50" height="50" relative="1" as="geometry">
            <mxPoint x="400" y="290" as="sourcePoint" />
            <mxPoint x="450" y="240" as="targetPoint" />
          </mxGeometry>
        </mxCell>
        <mxCell id="wx-EWtyC2w3FA3edwixe-99" value="" style="endArrow=none;html=1;rounded=0;entryX=0.5;entryY=1;entryDx=0;entryDy=0;exitX=0.5;exitY=0;exitDx=0;exitDy=0;" edge="1" parent="1" source="wx-EWtyC2w3FA3edwixe-95" target="wx-EWtyC2w3FA3edwixe-77">
          <mxGeometry width="50" height="50" relative="1" as="geometry">
            <mxPoint x="400" y="290" as="sourcePoint" />
            <mxPoint x="450" y="240" as="targetPoint" />
          </mxGeometry>
        </mxCell>
        <mxCell id="wx-EWtyC2w3FA3edwixe-100" value="" style="endArrow=none;html=1;rounded=0;exitX=1;exitY=1;exitDx=0;exitDy=0;entryX=0.5;entryY=0;entryDx=0;entryDy=0;" edge="1" parent="1" source="wx-EWtyC2w3FA3edwixe-77" target="wx-EWtyC2w3FA3edwixe-97">
          <mxGeometry width="50" height="50" relative="1" as="geometry">
            <mxPoint x="400" y="290" as="sourcePoint" />
            <mxPoint x="450" y="240" as="targetPoint" />
          </mxGeometry>
        </mxCell>
        <mxCell id="wx-EWtyC2w3FA3edwixe-102" value="Műszak" style="ellipse;whiteSpace=wrap;html=1;" vertex="1" parent="1">
          <mxGeometry x="272" y="585" width="70" height="40" as="geometry" />
        </mxCell>
        <mxCell id="wx-EWtyC2w3FA3edwixe-103" value="Ital" style="ellipse;whiteSpace=wrap;html=1;" vertex="1" parent="1">
          <mxGeometry x="272" y="355" width="56" height="30" as="geometry" />
        </mxCell>
        <mxCell id="wx-EWtyC2w3FA3edwixe-106" value="&lt;u&gt;T_id&lt;/u&gt;" style="rhombus;whiteSpace=wrap;html=1;" vertex="1" parent="1">
          <mxGeometry x="-270" y="290" width="60" height="60" as="geometry" />
        </mxCell>
        <mxCell id="wx-EWtyC2w3FA3edwixe-108" value="&lt;u&gt;B_id&lt;/u&gt;" style="rhombus;whiteSpace=wrap;html=1;" vertex="1" parent="1">
          <mxGeometry x="110" y="300" width="60" height="60" as="geometry" />
        </mxCell>
        <mxCell id="wx-EWtyC2w3FA3edwixe-109" value="&lt;u&gt;R_id&lt;/u&gt;" style="rhombus;whiteSpace=wrap;html=1;" vertex="1" parent="1">
          <mxGeometry x="465" y="310" width="60" height="60" as="geometry" />
        </mxCell>
        <mxCell id="wx-EWtyC2w3FA3edwixe-110" value="&lt;u&gt;A_id&lt;/u&gt;" style="rhombus;whiteSpace=wrap;html=1;" vertex="1" parent="1">
          <mxGeometry x="90" y="540" width="60" height="60" as="geometry" />
        </mxCell>
        <mxCell id="wx-EWtyC2w3FA3edwixe-111" value="&lt;u&gt;NY_id&lt;/u&gt;" style="rhombus;whiteSpace=wrap;html=1;" vertex="1" parent="1">
          <mxGeometry x="465" y="540" width="60" height="60" as="geometry" />
        </mxCell>
        <mxCell id="wx-EWtyC2w3FA3edwixe-112" value="&lt;u&gt;FESZ_id&lt;/u&gt;" style="rhombus;whiteSpace=wrap;html=1;" vertex="1" parent="1">
          <mxGeometry x="90" y="20" width="60" height="60" as="geometry" />
        </mxCell>
        <mxCell id="wx-EWtyC2w3FA3edwixe-113" value="&lt;u&gt;FEL_id&lt;/u&gt;" style="rhombus;whiteSpace=wrap;html=1;" vertex="1" parent="1">
          <mxGeometry x="1010" y="335" width="60" height="60" as="geometry" />
        </mxCell>
        <mxCell id="wx-EWtyC2w3FA3edwixe-116" value="" style="rounded=0;whiteSpace=wrap;html=1;" vertex="1" parent="1">
          <mxGeometry x="-180" y="410" width="30" height="60" as="geometry" />
        </mxCell>
        <mxCell id="wx-EWtyC2w3FA3edwixe-117" value="" style="endArrow=none;html=1;rounded=0;exitX=0.5;exitY=0;exitDx=0;exitDy=0;entryX=0.5;entryY=1;entryDx=0;entryDy=0;" edge="1" parent="1" source="wx-EWtyC2w3FA3edwixe-116" target="wx-EWtyC2w3FA3edwixe-33">
          <mxGeometry width="50" height="50" relative="1" as="geometry">
            <mxPoint x="400" y="400" as="sourcePoint" />
            <mxPoint x="450" y="350" as="targetPoint" />
          </mxGeometry>
        </mxCell>
        <mxCell id="wx-EWtyC2w3FA3edwixe-118" value="" style="rounded=0;whiteSpace=wrap;html=1;" vertex="1" parent="1">
          <mxGeometry x="-76" y="410" width="30" height="60" as="geometry" />
        </mxCell>
        <mxCell id="wx-EWtyC2w3FA3edwixe-119" value="" style="rounded=0;whiteSpace=wrap;html=1;" vertex="1" parent="1">
          <mxGeometry x="10" y="410" width="30" height="60" as="geometry" />
        </mxCell>
        <mxCell id="wx-EWtyC2w3FA3edwixe-120" value="" style="rounded=0;whiteSpace=wrap;html=1;" vertex="1" parent="1">
          <mxGeometry x="70" y="340" width="30" height="60" as="geometry" />
        </mxCell>
        <mxCell id="wx-EWtyC2w3FA3edwixe-122" value="" style="rounded=0;whiteSpace=wrap;html=1;" vertex="1" parent="1">
          <mxGeometry x="190" y="410" width="30" height="60" as="geometry" />
        </mxCell>
        <mxCell id="wx-EWtyC2w3FA3edwixe-123" value="" style="rounded=0;whiteSpace=wrap;html=1;" vertex="1" parent="1">
          <mxGeometry x="284" y="410" width="30" height="60" as="geometry" />
        </mxCell>
        <mxCell id="wx-EWtyC2w3FA3edwixe-124" value="" style="rounded=0;whiteSpace=wrap;html=1;" vertex="1" parent="1">
          <mxGeometry x="370" y="385" width="30" height="60" as="geometry" />
        </mxCell>
        <mxCell id="wx-EWtyC2w3FA3edwixe-125" value="" style="rounded=0;whiteSpace=wrap;html=1;" vertex="1" parent="1">
          <mxGeometry x="550" y="420" width="30" height="60" as="geometry" />
        </mxCell>
        <mxCell id="wx-EWtyC2w3FA3edwixe-126" value="" style="rounded=0;whiteSpace=wrap;html=1;" vertex="1" parent="1">
          <mxGeometry x="654" y="420" width="30" height="60" as="geometry" />
        </mxCell>
        <mxCell id="wx-EWtyC2w3FA3edwixe-127" value="" style="rounded=0;whiteSpace=wrap;html=1;" vertex="1" parent="1">
          <mxGeometry x="180" y="660" width="30" height="60" as="geometry" />
        </mxCell>
        <mxCell id="wx-EWtyC2w3FA3edwixe-128" value="" style="rounded=0;whiteSpace=wrap;html=1;" vertex="1" parent="1">
          <mxGeometry x="292" y="660" width="30" height="60" as="geometry" />
        </mxCell>
        <mxCell id="wx-EWtyC2w3FA3edwixe-129" value="" style="rounded=0;whiteSpace=wrap;html=1;" vertex="1" parent="1">
          <mxGeometry x="370" y="625" width="30" height="60" as="geometry" />
        </mxCell>
        <mxCell id="wx-EWtyC2w3FA3edwixe-131" value="" style="rounded=0;whiteSpace=wrap;html=1;" vertex="1" parent="1">
          <mxGeometry x="570" y="660" width="30" height="60" as="geometry" />
        </mxCell>
        <mxCell id="wx-EWtyC2w3FA3edwixe-132" value="" style="rounded=0;whiteSpace=wrap;html=1;" vertex="1" parent="1">
          <mxGeometry x="700" y="620" width="30" height="60" as="geometry" />
        </mxCell>
        <mxCell id="wx-EWtyC2w3FA3edwixe-134" value="" style="rounded=0;whiteSpace=wrap;html=1;" vertex="1" parent="1">
          <mxGeometry x="740" y="470" width="30" height="60" as="geometry" />
        </mxCell>
        <mxCell id="wx-EWtyC2w3FA3edwixe-135" value="" style="rounded=0;whiteSpace=wrap;html=1;" vertex="1" parent="1">
          <mxGeometry x="830" y="470" width="30" height="60" as="geometry" />
        </mxCell>
        <mxCell id="wx-EWtyC2w3FA3edwixe-137" value="" style="rounded=0;whiteSpace=wrap;html=1;" vertex="1" parent="1">
          <mxGeometry x="920" y="460" width="30" height="60" as="geometry" />
        </mxCell>
        <mxCell id="wx-EWtyC2w3FA3edwixe-138" value="" style="rounded=0;whiteSpace=wrap;html=1;" vertex="1" parent="1">
          <mxGeometry x="1120" y="465" width="30" height="60" as="geometry" />
        </mxCell>
        <mxCell id="wx-EWtyC2w3FA3edwixe-139" value="" style="rounded=0;whiteSpace=wrap;html=1;" vertex="1" parent="1">
          <mxGeometry x="1224" y="465" width="30" height="60" as="geometry" />
        </mxCell>
        <mxCell id="wx-EWtyC2w3FA3edwixe-140" value="" style="rounded=0;whiteSpace=wrap;html=1;" vertex="1" parent="1">
          <mxGeometry x="1300" y="425" width="30" height="60" as="geometry" />
        </mxCell>
        <mxCell id="wx-EWtyC2w3FA3edwixe-144" value="" style="endArrow=none;html=1;rounded=0;exitX=0.5;exitY=1;exitDx=0;exitDy=0;entryX=0.5;entryY=0;entryDx=0;entryDy=0;" edge="1" parent="1" source="wx-EWtyC2w3FA3edwixe-36" target="wx-EWtyC2w3FA3edwixe-118">
          <mxGeometry width="50" height="50" relative="1" as="geometry">
            <mxPoint x="130" y="400" as="sourcePoint" />
            <mxPoint x="180" y="350" as="targetPoint" />
          </mxGeometry>
        </mxCell>
        <mxCell id="wx-EWtyC2w3FA3edwixe-145" value="" style="endArrow=none;html=1;rounded=0;exitX=0.5;exitY=1;exitDx=0;exitDy=0;entryX=0.5;entryY=0;entryDx=0;entryDy=0;" edge="1" parent="1" source="wx-EWtyC2w3FA3edwixe-35" target="wx-EWtyC2w3FA3edwixe-119">
          <mxGeometry width="50" height="50" relative="1" as="geometry">
            <mxPoint x="130" y="400" as="sourcePoint" />
            <mxPoint x="180" y="350" as="targetPoint" />
          </mxGeometry>
        </mxCell>
        <mxCell id="wx-EWtyC2w3FA3edwixe-146" value="" style="endArrow=none;html=1;rounded=0;exitX=0.5;exitY=1;exitDx=0;exitDy=0;entryX=0.5;entryY=0;entryDx=0;entryDy=0;" edge="1" parent="1" source="wx-EWtyC2w3FA3edwixe-41" target="wx-EWtyC2w3FA3edwixe-120">
          <mxGeometry width="50" height="50" relative="1" as="geometry">
            <mxPoint x="130" y="400" as="sourcePoint" />
            <mxPoint x="180" y="350" as="targetPoint" />
          </mxGeometry>
        </mxCell>
        <mxCell id="wx-EWtyC2w3FA3edwixe-147" value="" style="endArrow=none;html=1;rounded=0;exitX=0.5;exitY=1;exitDx=0;exitDy=0;entryX=0.5;entryY=0;entryDx=0;entryDy=0;" edge="1" parent="1" source="wx-EWtyC2w3FA3edwixe-50" target="wx-EWtyC2w3FA3edwixe-122">
          <mxGeometry width="50" height="50" relative="1" as="geometry">
            <mxPoint x="130" y="400" as="sourcePoint" />
            <mxPoint x="180" y="350" as="targetPoint" />
          </mxGeometry>
        </mxCell>
        <mxCell id="wx-EWtyC2w3FA3edwixe-148" value="" style="endArrow=none;html=1;rounded=0;exitX=0.5;exitY=0;exitDx=0;exitDy=0;entryX=0.5;entryY=1;entryDx=0;entryDy=0;" edge="1" parent="1" source="wx-EWtyC2w3FA3edwixe-123" target="wx-EWtyC2w3FA3edwixe-53">
          <mxGeometry width="50" height="50" relative="1" as="geometry">
            <mxPoint x="130" y="400" as="sourcePoint" />
            <mxPoint x="180" y="350" as="targetPoint" />
          </mxGeometry>
        </mxCell>
        <mxCell id="wx-EWtyC2w3FA3edwixe-149" value="" style="endArrow=none;html=1;rounded=0;exitX=0.5;exitY=0;exitDx=0;exitDy=0;entryX=0.5;entryY=1;entryDx=0;entryDy=0;" edge="1" parent="1" source="wx-EWtyC2w3FA3edwixe-124" target="wx-EWtyC2w3FA3edwixe-52">
          <mxGeometry width="50" height="50" relative="1" as="geometry">
            <mxPoint x="130" y="400" as="sourcePoint" />
            <mxPoint x="180" y="350" as="targetPoint" />
          </mxGeometry>
        </mxCell>
        <mxCell id="wx-EWtyC2w3FA3edwixe-150" value="" style="endArrow=none;html=1;rounded=0;entryX=0.5;entryY=1;entryDx=0;entryDy=0;exitX=0.5;exitY=0;exitDx=0;exitDy=0;" edge="1" parent="1" source="wx-EWtyC2w3FA3edwixe-127" target="wx-EWtyC2w3FA3edwixe-64">
          <mxGeometry width="50" height="50" relative="1" as="geometry">
            <mxPoint x="130" y="400" as="sourcePoint" />
            <mxPoint x="180" y="350" as="targetPoint" />
          </mxGeometry>
        </mxCell>
        <mxCell id="wx-EWtyC2w3FA3edwixe-151" value="" style="endArrow=none;html=1;rounded=0;exitX=0.5;exitY=1;exitDx=0;exitDy=0;entryX=0.5;entryY=0;entryDx=0;entryDy=0;" edge="1" parent="1" source="wx-EWtyC2w3FA3edwixe-67" target="wx-EWtyC2w3FA3edwixe-128">
          <mxGeometry width="50" height="50" relative="1" as="geometry">
            <mxPoint x="130" y="400" as="sourcePoint" />
            <mxPoint x="180" y="350" as="targetPoint" />
          </mxGeometry>
        </mxCell>
        <mxCell id="wx-EWtyC2w3FA3edwixe-152" value="" style="endArrow=none;html=1;rounded=0;exitX=0.5;exitY=1;exitDx=0;exitDy=0;entryX=0.5;entryY=0;entryDx=0;entryDy=0;" edge="1" parent="1" source="wx-EWtyC2w3FA3edwixe-66" target="wx-EWtyC2w3FA3edwixe-129">
          <mxGeometry width="50" height="50" relative="1" as="geometry">
            <mxPoint x="130" y="400" as="sourcePoint" />
            <mxPoint x="180" y="350" as="targetPoint" />
          </mxGeometry>
        </mxCell>
        <mxCell id="wx-EWtyC2w3FA3edwixe-153" value="" style="endArrow=none;html=1;rounded=0;exitX=0.5;exitY=0;exitDx=0;exitDy=0;entryX=0.5;entryY=1;entryDx=0;entryDy=0;" edge="1" parent="1" source="wx-EWtyC2w3FA3edwixe-125" target="wx-EWtyC2w3FA3edwixe-75">
          <mxGeometry width="50" height="50" relative="1" as="geometry">
            <mxPoint x="130" y="400" as="sourcePoint" />
            <mxPoint x="180" y="350" as="targetPoint" />
          </mxGeometry>
        </mxCell>
        <mxCell id="wx-EWtyC2w3FA3edwixe-154" value="" style="endArrow=none;html=1;rounded=0;exitX=0.5;exitY=0;exitDx=0;exitDy=0;entryX=0.5;entryY=1;entryDx=0;entryDy=0;" edge="1" parent="1" source="wx-EWtyC2w3FA3edwixe-131" target="wx-EWtyC2w3FA3edwixe-85">
          <mxGeometry width="50" height="50" relative="1" as="geometry">
            <mxPoint x="150" y="390" as="sourcePoint" />
            <mxPoint x="200" y="340" as="targetPoint" />
          </mxGeometry>
        </mxCell>
        <mxCell id="wx-EWtyC2w3FA3edwixe-155" value="" style="endArrow=none;html=1;rounded=0;exitX=0.5;exitY=0;exitDx=0;exitDy=0;entryX=0.5;entryY=1;entryDx=0;entryDy=0;" edge="1" parent="1" source="wx-EWtyC2w3FA3edwixe-132" target="wx-EWtyC2w3FA3edwixe-88">
          <mxGeometry width="50" height="50" relative="1" as="geometry">
            <mxPoint x="130" y="400" as="sourcePoint" />
            <mxPoint x="180" y="350" as="targetPoint" />
          </mxGeometry>
        </mxCell>
        <mxCell id="wx-EWtyC2w3FA3edwixe-156" value="" style="endArrow=none;html=1;rounded=0;exitX=0.5;exitY=0;exitDx=0;exitDy=0;entryX=0.5;entryY=1;entryDx=0;entryDy=0;" edge="1" parent="1" source="wx-EWtyC2w3FA3edwixe-126" target="wx-EWtyC2w3FA3edwixe-78">
          <mxGeometry width="50" height="50" relative="1" as="geometry">
            <mxPoint x="130" y="400" as="sourcePoint" />
            <mxPoint x="180" y="350" as="targetPoint" />
          </mxGeometry>
        </mxCell>
        <mxCell id="wx-EWtyC2w3FA3edwixe-157" value="" style="endArrow=none;html=1;rounded=0;exitX=0.5;exitY=0;exitDx=0;exitDy=0;entryX=0.5;entryY=1;entryDx=0;entryDy=0;" edge="1" parent="1" source="wx-EWtyC2w3FA3edwixe-134" target="wx-EWtyC2w3FA3edwixe-96">
          <mxGeometry width="50" height="50" relative="1" as="geometry">
            <mxPoint x="790" y="400" as="sourcePoint" />
            <mxPoint x="840" y="350" as="targetPoint" />
          </mxGeometry>
        </mxCell>
        <mxCell id="wx-EWtyC2w3FA3edwixe-158" value="" style="endArrow=none;html=1;rounded=0;entryX=0.5;entryY=0;entryDx=0;entryDy=0;exitX=0.5;exitY=1;exitDx=0;exitDy=0;" edge="1" parent="1" source="wx-EWtyC2w3FA3edwixe-95" target="wx-EWtyC2w3FA3edwixe-135">
          <mxGeometry width="50" height="50" relative="1" as="geometry">
            <mxPoint x="790" y="400" as="sourcePoint" />
            <mxPoint x="840" y="350" as="targetPoint" />
          </mxGeometry>
        </mxCell>
        <mxCell id="wx-EWtyC2w3FA3edwixe-159" value="" style="endArrow=none;html=1;rounded=0;entryX=0.5;entryY=0;entryDx=0;entryDy=0;exitX=0.5;exitY=1;exitDx=0;exitDy=0;" edge="1" parent="1" source="wx-EWtyC2w3FA3edwixe-97" target="wx-EWtyC2w3FA3edwixe-137">
          <mxGeometry width="50" height="50" relative="1" as="geometry">
            <mxPoint x="790" y="400" as="sourcePoint" />
            <mxPoint x="840" y="350" as="targetPoint" />
          </mxGeometry>
        </mxCell>
        <mxCell id="wx-EWtyC2w3FA3edwixe-160" value="" style="endArrow=none;html=1;rounded=0;exitX=0.5;exitY=0;exitDx=0;exitDy=0;entryX=0.5;entryY=1;entryDx=0;entryDy=0;" edge="1" parent="1" source="wx-EWtyC2w3FA3edwixe-138">
          <mxGeometry width="50" height="50" relative="1" as="geometry">
            <mxPoint x="910" y="445" as="sourcePoint" />
            <mxPoint x="1135" y="425" as="targetPoint" />
          </mxGeometry>
        </mxCell>
        <mxCell id="wx-EWtyC2w3FA3edwixe-161" value="" style="endArrow=none;html=1;rounded=0;entryX=0.5;entryY=0;entryDx=0;entryDy=0;exitX=0.5;exitY=1;exitDx=0;exitDy=0;" edge="1" parent="1" source="wx-EWtyC2w3FA3edwixe-23" target="wx-EWtyC2w3FA3edwixe-139">
          <mxGeometry width="50" height="50" relative="1" as="geometry">
            <mxPoint x="910" y="445" as="sourcePoint" />
            <mxPoint x="960" y="395" as="targetPoint" />
          </mxGeometry>
        </mxCell>
        <mxCell id="wx-EWtyC2w3FA3edwixe-162" value="" style="endArrow=none;html=1;rounded=0;entryX=0.5;entryY=0;entryDx=0;entryDy=0;exitX=0.5;exitY=1;exitDx=0;exitDy=0;" edge="1" parent="1" source="wx-EWtyC2w3FA3edwixe-21" target="wx-EWtyC2w3FA3edwixe-140">
          <mxGeometry width="50" height="50" relative="1" as="geometry">
            <mxPoint x="910" y="445" as="sourcePoint" />
            <mxPoint x="960" y="395" as="targetPoint" />
          </mxGeometry>
        </mxCell>
        <mxCell id="wx-EWtyC2w3FA3edwixe-163" value="" style="rounded=0;whiteSpace=wrap;html=1;" vertex="1" parent="1">
          <mxGeometry x="348" y="230" width="30" height="60" as="geometry" />
        </mxCell>
        <mxCell id="wx-EWtyC2w3FA3edwixe-164" value="" style="endArrow=none;html=1;rounded=0;exitX=0.5;exitY=0;exitDx=0;exitDy=0;entryX=0.5;entryY=1;entryDx=0;entryDy=0;" edge="1" parent="1" source="wx-EWtyC2w3FA3edwixe-163" target="wx-EWtyC2w3FA3edwixe-6">
          <mxGeometry width="50" height="50" relative="1" as="geometry">
            <mxPoint x="-70" y="-40" as="sourcePoint" />
            <mxPoint x="365" y="190" as="targetPoint" />
          </mxGeometry>
        </mxCell>
        <mxCell id="wx-EWtyC2w3FA3edwixe-165" value="" style="rounded=0;whiteSpace=wrap;html=1;" vertex="1" parent="1">
          <mxGeometry x="570" y="180" width="30" height="60" as="geometry" />
        </mxCell>
        <mxCell id="wx-EWtyC2w3FA3edwixe-166" value="" style="endArrow=none;html=1;rounded=0;exitX=0.5;exitY=0;exitDx=0;exitDy=0;entryX=0.5;entryY=1;entryDx=0;entryDy=0;" edge="1" parent="1" source="wx-EWtyC2w3FA3edwixe-165" target="wx-EWtyC2w3FA3edwixe-7">
          <mxGeometry width="50" height="50" relative="1" as="geometry">
            <mxPoint x="150" y="-90" as="sourcePoint" />
            <mxPoint x="585" y="140" as="targetPoint" />
          </mxGeometry>
        </mxCell>
        <mxCell id="wx-EWtyC2w3FA3edwixe-167" value="" style="rounded=0;whiteSpace=wrap;html=1;" vertex="1" parent="1">
          <mxGeometry x="180" y="200" width="30" height="60" as="geometry" />
        </mxCell>
        <mxCell id="wx-EWtyC2w3FA3edwixe-168" value="" style="endArrow=none;html=1;rounded=0;exitX=0.5;exitY=0;exitDx=0;exitDy=0;" edge="1" parent="1" source="wx-EWtyC2w3FA3edwixe-167">
          <mxGeometry width="50" height="50" relative="1" as="geometry">
            <mxPoint x="-240" y="-70" as="sourcePoint" />
            <mxPoint x="195" y="180" as="targetPoint" />
          </mxGeometry>
        </mxCell>
      </root>
    </mxGraphModel>
  </diagram>
</mxfile>
